<svg xmlns="http://www.w3.org/2000/svg" viewBox="0 0 72.81 72.81">
  <defs>
    <style>
      .cls-1 {
        fill: none;
      }

      .cls-2 {
        fill: #0071bc;
      }
    </style>
  </defs>
  <title>Cardápio semanal</title>
  <g id="Camada_2" data-name="Camada 2">
    <g id="Aba_-_Página_Inicial" data-name="Aba - Página Inicial">
      <g id="Elementos">
        <g id="Botões">
          <g id="Botões_Cardápios_Pop-up_" data-name="Botões Cardápios (Pop-up)">
            <g id="Botões-2" data-name="Botões">
              <g>
                <path class="cls-1" d="M0,0H72.81V72.81H0Z"/>
                <path class="cls-2" d="M48.54,39.44h-9.1a3,3,0,0,0-3,3v9.1a3.05,3.05,0,0,0,3,3h9.1a3,3,0,0,0,3-3v-9.1A3,3,0,0,0,48.54,39.44Zm0-30.34v3H24.27v-3a3,3,0,0,0-6.07,0v3h-3a6,6,0,0,0-6,6.07l0,42.48a6.06,6.06,0,0,0,6.07,6.06H57.64a6.08,6.08,0,0,0,6.07-6.06V18.2a6.09,6.09,0,0,0-6.07-6.07h-3v-3a3,3,0,0,0-6.07,0Zm6.07,51.58H18.2a3,3,0,0,1-3-3V27.3H57.64V57.64A3,3,0,0,1,54.61,60.68Z"/>
              </g>
            </g>
          </g>
        </g>
      </g>
    </g>
  </g>
</svg>
