<svg xmlns="http://www.w3.org/2000/svg" viewBox="0 0 24 24">
  <defs>
    <style>
      .cls-1 {
        fill: none;
      }

      .cls-2 {
        fill: #0071bc;
      }
    </style>
  </defs>
  <title>Escola - Azul</title>
  <g id="Camada_2" data-name="Camada 2">
    <g id="Camada_1-2" data-name="Camada 1">
      <g>
        <path class="cls-1" d="M0,0H24V24H0Z"/>
        <path class="cls-2" d="M5,13.18V16a2,2,0,0,0,1,1.76l5,2.73a2,2,0,0,0,1.92,0l5-2.73A2,2,0,0,0,19,16V13.18l-6,3.3a2,2,0,0,1-1.92,0Zm6-9.66L2.61,8.12a1,1,0,0,0,0,1.76L11,14.48a2,2,0,0,0,1.92,0l8-4.39V16a1,1,0,0,0,2,0V9.59a1,1,0,0,0-.52-.88L13,3.52A2,2,0,0,0,11,3.52Z"/>
      </g>
    </g>
  </g>
</svg>
