<svg xmlns="http://www.w3.org/2000/svg" viewBox="0 0 72.81 72.81">
  <defs>
    <style>
      .cls-1 {
        fill: none;
      }

      .cls-2 {
        fill: #0071bc;
      }
    </style>
  </defs>
  <title>Gerenciar Estoques</title>
  <g id="Camada_2" data-name="Camada 2">
    <g id="Aba_-_Página_Inicial" data-name="Aba - Página Inicial">
      <g id="Elementos">
        <g id="Botões">
          <g id="Botões_Estoque_Pop-up_" data-name="Botões Estoque (Pop-up)">
            <g id="Botões-2" data-name="Botões">
              <g>
                <path class="cls-1" d="M0,0H72.81V72.81H0Z"/>
                <path class="cls-2" d="M9.93,46.33h53a3.31,3.31,0,0,0,0-6.62H9.93a3.31,3.31,0,0,0,0,6.62Zm0,13.24h53a3.31,3.31,0,0,0,0-6.62H9.93a3.31,3.31,0,0,0,0,6.62Zm0-26.47h53a3.31,3.31,0,0,0,0-6.62H9.93a3.31,3.31,0,1,0,0,6.62ZM6.62,16.55a3.32,3.32,0,0,0,3.31,3.31h53a3.31,3.31,0,0,0,0-6.62H9.93A3.32,3.32,0,0,0,6.62,16.55Z"/>
              </g>
            </g>
          </g>
        </g>
      </g>
    </g>
  </g>
</svg>
