<svg xmlns="http://www.w3.org/2000/svg" viewBox="0 0 72.81 72.81">
  <defs>
    <style>
      .cls-1 {
        fill: none;
      }

      .cls-2 {
        fill: #0071bc;
      }
    </style>
  </defs>
  <title>Produtos</title>
  <g id="Camada_2" data-name="Camada 2">
    <g id="Aba_-_Página_Inicial" data-name="Aba - Página Inicial">
      <g id="Elementos">
        <g id="Botões">
          <g id="Botões_Menu_de_Itens_Pop-up_" data-name="Botões Menu de Itens(Pop-up)">
            <g id="Botões-2" data-name="Botões">
              <g>
                <path class="cls-1" d="M0,0H72.81V72.81H0Z"/>
                <path class="cls-2" d="M38.22,44.5V64.36a3.32,3.32,0,0,0,3.31,3.31H61.39a3.32,3.32,0,0,0,3.31-3.31V44.5a3.32,3.32,0,0,0-3.31-3.31H41.53A3.32,3.32,0,0,0,38.22,44.5ZM8.44,67.67H28.29a3.32,3.32,0,0,0,3.31-3.31V44.5a3.32,3.32,0,0,0-3.31-3.31H8.44A3.31,3.31,0,0,0,5.13,44.5V64.36A3.31,3.31,0,0,0,8.44,67.67ZM5.13,11.41V31.26a3.31,3.31,0,0,0,3.31,3.31H28.29a3.32,3.32,0,0,0,3.31-3.31V11.41A3.32,3.32,0,0,0,28.29,8.1H8.44A3.31,3.31,0,0,0,5.13,11.41ZM48,6.11l-14.06,14a3.3,3.3,0,0,0,0,4.67L48,38.87a3.28,3.28,0,0,0,4.67,0L66.72,24.81a3.3,3.3,0,0,0,0-4.67l-14-14A3.34,3.34,0,0,0,48,6.11Z"/>
              </g>
            </g>
          </g>
        </g>
      </g>
    </g>
  </g>
</svg>
