<svg xmlns="http://www.w3.org/2000/svg" viewBox="0 0 149.42 75">
  <defs>
    <style>
      .cls-1, .cls-2 {
        fill: #fff;
      }

      .cls-1, .cls-11, .cls-4, .cls-5 {
        fill-rule: evenodd;
      }

      .cls-3 {
        fill: #3b683d;
      }

      .cls-4 {
        fill: #202020;
      }

      .cls-5, .cls-7 {
        fill: #573b1c;
      }

      .cls-6 {
        fill: #363636;
      }

      .cls-8 {
        fill: #e7ad47;
      }

      .cls-9 {
        fill: #b41b59;
      }

      .cls-10 {
        fill: #da0100;
      }
    </style>
  </defs>
  <title>Ativo 89</title>
  <g id="Camada_2" data-name="Camada 2">
    <g id="Aba_-_Gerenciar_Usuários" data-name="Aba - Gerenciar Usuários">
      <g id="Layout">
        <g>
          <g>
            <g>
              <path class="cls-1" d="M36.86,7.1V23c0,.22,0,.45,0,.67a18.11,18.11,0,0,1-2.41,8.3,18.83,18.83,0,0,1-1.94,2.74,18.58,18.58,0,0,1-4.72,3.92A18.38,18.38,0,0,1,24,40.24l-.5.15a19,19,0,0,1-2.52.5,20.17,20.17,0,0,1-2.07.14h-.47a20,20,0,0,1-2.06-.14,18.73,18.73,0,0,1-2.52-.5l-.51-.15a18.23,18.23,0,0,1-8.48-5.56,18.19,18.19,0,0,1-4.36-11c0-.22,0-.45,0-.67V7.1a11.22,11.22,0,0,0,4.57,3.69,11.59,11.59,0,0,0,1.43.52,11.64,11.64,0,0,0,3.09.42,9.09,9.09,0,0,1,9.09,9.09,9.09,9.09,0,0,1,9.09-9.09,10.18,10.18,0,0,0,1.57-.11,12.23,12.23,0,0,0,1.51-.31,11.59,11.59,0,0,0,1.43-.52A11.25,11.25,0,0,0,36.86,7.1Z"/>
              <path d="M18.68,41.53h-.25a18.71,18.71,0,0,1-2.11-.15,17.6,17.6,0,0,1-2.6-.52c-.18,0-.35-.09-.51-.15A18.21,18.21,0,0,1,9.34,39a18.62,18.62,0,0,1-4.85-4,18.32,18.32,0,0,1-2-2.81A18.66,18.66,0,0,1,0,23.66c0-.22,0-.45,0-.68V7.1a.51.51,0,0,1,.34-.47.5.5,0,0,1,.56.18,10.83,10.83,0,0,0,4.37,3.53,11.8,11.8,0,0,0,1.37.49,10.78,10.78,0,0,0,3,.41,9.61,9.61,0,0,1,9.09,6.52,9.38,9.38,0,0,1,1.53-2.83,9.51,9.51,0,0,1,7.56-3.69,11,11,0,0,0,1.51-.11,11.88,11.88,0,0,0,1.44-.3,11,11,0,0,0,1.36-.49,10.92,10.92,0,0,0,4.38-3.53A.49.49,0,0,1,37,6.63a.5.5,0,0,1,.35.47V22.85a.62.62,0,0,1,0,.13c0,.23,0,.46,0,.69a18.78,18.78,0,0,1-2.48,8.52,19.1,19.1,0,0,1-2,2.81,18.54,18.54,0,0,1-8.71,5.71c-.17.06-.34.1-.52.15a17.73,17.73,0,0,1-2.59.52,18.88,18.88,0,0,1-2.12.15ZM1,8.48V23H1c0,.22,0,.44,0,.65A17.74,17.74,0,0,0,13.5,39.77l.49.14a18.31,18.31,0,0,0,2.45.49,17,17,0,0,0,2,.13h.46a16.79,16.79,0,0,0,2-.13,18.46,18.46,0,0,0,2.46-.49l.48-.14a17.69,17.69,0,0,0,8.26-5.42,17.58,17.58,0,0,0,4.24-10.73c0-.22,0-.44,0-.65h0V8.48a11.57,11.57,0,0,1-3.88,2.76,10.22,10.22,0,0,1-1.49.54,12.36,12.36,0,0,1-1.58.34,12.78,12.78,0,0,1-1.64.11,8.6,8.6,0,0,0-8.6,8.59.5.5,0,1,1-1,0,8.6,8.6,0,0,0-8.59-8.59,11.59,11.59,0,0,1-3.22-.45,10.34,10.34,0,0,1-1.5-.54A11.57,11.57,0,0,1,1,8.48Z"/>
            </g>
            <path class="cls-2" d="M16.53,22.85v.26A7,7,0,0,1,13,28.9h0a6.89,6.89,0,0,1-3.16.89H9.48a6.53,6.53,0,0,1-1.17-.11,7,7,0,0,1-2.79-1.2,6.9,6.9,0,0,1-2.67-3.94,6.75,6.75,0,0,1-.21-1.69,6.95,6.95,0,0,1,13.89,0Z"/>
            <path class="cls-2" d="M34.71,22.85a7.24,7.24,0,0,1-.2,1.69,7,7,0,0,1-2.68,3.94A6.85,6.85,0,0,1,29,29.68a6.45,6.45,0,0,1-1.17.11h-.36a6.93,6.93,0,0,1-6.68-6.68c0-.05,0-.09,0-.13v-.13a6.95,6.95,0,0,1,13.89,0Z"/>
            <path class="cls-3" d="M12.24,21.84a1.64,1.64,0,0,1-1-2.95,4.35,4.35,0,0,0-1.66-.33,4.29,4.29,0,1,0,4.29,4.29,4.18,4.18,0,0,0-.34-1.66A1.64,1.64,0,0,1,12.24,21.84Z"/>
            <path class="cls-3" d="M30.42,21.84a1.64,1.64,0,0,1-1-2.95,4.35,4.35,0,0,0-1.66-.33,4.29,4.29,0,1,0,4.29,4.29,4.35,4.35,0,0,0-.33-1.66A1.66,1.66,0,0,1,30.42,21.84Z"/>
            <path d="M9.59,17.23A5.62,5.62,0,1,1,4,22.85a5.62,5.62,0,0,1,5.63-5.62m0-1.32a6.95,6.95,0,1,0,6.94,6.94,6.95,6.95,0,0,0-6.94-6.94Z"/>
            <path d="M27.77,17.23a5.62,5.62,0,1,1-5.62,5.62,5.62,5.62,0,0,1,5.62-5.62m0-1.32a6.95,6.95,0,1,0,6.94,6.94,6.95,6.95,0,0,0-6.94-6.94Z"/>
            <path d="M20.85,24.12a.61.61,0,0,1-.34-.1,3.65,3.65,0,0,0-3.67,0,.66.66,0,1,1-.66-1.14,5,5,0,0,1,5,0,.67.67,0,0,1,.23.91A.69.69,0,0,1,20.85,24.12Z"/>
            <path class="cls-1" d="M36.86,22.85V41a18.09,18.09,0,0,1-6.44,13.88c-.42.36-.87.7-1.32,1a18.19,18.19,0,0,1-20.84,0c-.46-.32-.9-.66-1.33-1A17.55,17.55,0,0,1,4.7,52.66,18.1,18.1,0,0,1,.5,41V23c0,.22,0,.45,0,.67a18.2,18.2,0,0,0,9.08,15,17.77,17.77,0,0,0,3.76,1.64l.51.15a18.73,18.73,0,0,0,2.52.5,20,20,0,0,0,2.06.14h.47A20.17,20.17,0,0,0,21,40.89a19,19,0,0,0,2.52-.5l.5-.15a17.86,17.86,0,0,0,3.77-1.64,18.38,18.38,0,0,0,4.72-3.92,18.83,18.83,0,0,0,1.94-2.74,18.11,18.11,0,0,0,2.41-8.3c0-.22,0-.45,0-.67Z"/>
            <path d="M18.68,59.71A18.61,18.61,0,0,1,8,56.34c-.46-.33-.92-.68-1.36-1.05A18.66,18.66,0,0,1,0,41V22.85a.5.5,0,0,1,.5-.5.5.5,0,0,1,.49.5H1V23c0,.23,0,.45,0,.66a17.61,17.61,0,0,0,2.35,8.07,17,17,0,0,0,1.88,2.66,17.69,17.69,0,0,0,8.26,5.42l.49.14a18.64,18.64,0,0,0,2.45.49,16.82,16.82,0,0,0,2,.13h.45a16.68,16.68,0,0,0,2-.13,18.78,18.78,0,0,0,2.46-.49l.48-.14a17.69,17.69,0,0,0,8.26-5.42,17.58,17.58,0,0,0,4.24-10.73c0-.21,0-.43,0-.65v-.11h0a.5.5,0,0,1,1,0V41A18.7,18.7,0,0,1,33,53a18,18,0,0,1-2.3,2.32c-.43.37-.89.72-1.36,1.05A18.6,18.6,0,0,1,18.68,59.71ZM1,28.86V41A17.69,17.69,0,0,0,5.08,52.34a17.27,17.27,0,0,0,2.17,2.19c.42.36.85.69,1.29,1a17.7,17.7,0,0,0,20.27,0c.44-.31.88-.65,1.29-1a18.12,18.12,0,0,0,2.18-2.2A17.74,17.74,0,0,0,36.36,41V28.86a18.44,18.44,0,0,1-1.5,3.33,19.1,19.1,0,0,1-2,2.81,18.54,18.54,0,0,1-8.71,5.71c-.17.06-.34.1-.52.15a17.73,17.73,0,0,1-2.59.52,18.72,18.72,0,0,1-2.12.15h-.49a18.54,18.54,0,0,1-2.11-.15,17.86,17.86,0,0,1-2.6-.52c-.18,0-.35-.09-.51-.15A18.21,18.21,0,0,1,9.34,39a18.62,18.62,0,0,1-4.85-4A18.66,18.66,0,0,1,1,28.86Z"/>
            <g>
              <path d="M18.68,9.08v4.78a18.16,18.16,0,0,0-6.39-2.46h0a18.43,18.43,0,0,0-2.7-.27V6.93l.2.05,7.44,1.76Z"/>
              <path d="M18.68,14.35a.48.48,0,0,1-.26-.07,17.65,17.65,0,0,0-6.2-2.39h0a17.89,17.89,0,0,0-2.64-.26.5.5,0,0,1-.48-.5V6.93a.47.47,0,0,1,.19-.38.49.49,0,0,1,.42-.1L18.79,8.6a.48.48,0,0,1,.38.48v4.78a.48.48,0,0,1-.25.43A.53.53,0,0,1,18.68,14.35Zm-6.31-3.44h0A18.38,18.38,0,0,1,18.18,13V9.47l-8.1-1.91v3.09A19.33,19.33,0,0,1,12.37,10.91Z"/>
            </g>
            <g>
              <path class="cls-4" d="M27.77,6.93v4.2a18.57,18.57,0,0,0-2.71.27h0a18.12,18.12,0,0,0-6.38,2.46V9.08l1.45-.34L27.56,7Z"/>
              <path d="M18.68,14.35a.48.48,0,0,1-.24-.06.49.49,0,0,1-.26-.43V9.08a.49.49,0,0,1,.38-.48l9.09-2.15a.51.51,0,0,1,.43.1.49.49,0,0,1,.18.38v4.2a.5.5,0,0,1-.48.5,17.75,17.75,0,0,0-2.63.26h0a17.57,17.57,0,0,0-6.2,2.39A.48.48,0,0,1,18.68,14.35Zm.49-4.88V13A18.43,18.43,0,0,1,25,10.92h0a19.16,19.16,0,0,1,2.28-.26V7.56Z"/>
            </g>
            <g>
              <path class="cls-5" d="M27.77,7.1v4a18.57,18.57,0,0,0-2.71.27h0a18.12,18.12,0,0,0-6.38,2.46,18.16,18.16,0,0,0-6.39-2.46h0a18.43,18.43,0,0,0-2.7-.27v-4a18.28,18.28,0,0,0-4.52,3.69,13.49,13.49,0,0,0,1.43.52h0a11.64,11.64,0,0,0,3.09.42,9.09,9.09,0,0,1,9.09,9.09,9.09,9.09,0,0,1,9.09-9.09,11.57,11.57,0,0,0,3.08-.42h0a13.49,13.49,0,0,0,1.43-.52A18.05,18.05,0,0,0,27.77,7.1Z"/>
              <path d="M18.68,21.32a.5.5,0,0,1-.5-.5,8.6,8.6,0,0,0-8.59-8.59,12,12,0,0,1-3.21-.44h0a10.34,10.34,0,0,1-1.5-.54.48.48,0,0,1-.28-.34.5.5,0,0,1,.11-.44A18.81,18.81,0,0,1,9.34,6.67a.48.48,0,0,1,.49,0,.48.48,0,0,1,.25.43v3.55a19.33,19.33,0,0,1,2.29.26h0a18.36,18.36,0,0,1,6.3,2.36A18.21,18.21,0,0,1,25,10.92h0a19.16,19.16,0,0,1,2.28-.26V7.1a.5.5,0,0,1,.25-.43.5.5,0,0,1,.5,0,18.58,18.58,0,0,1,4.63,3.79.5.5,0,0,1,.12.44.5.5,0,0,1-.29.34,9.82,9.82,0,0,1-1.49.54h0a12,12,0,0,1-3.21.44,8.6,8.6,0,0,0-8.6,8.59A.49.49,0,0,1,18.68,21.32Zm-4.67-9a9.72,9.72,0,0,1,3.14,2.62,9.61,9.61,0,0,1,1.53,2.83,9.38,9.38,0,0,1,1.53-2.83,9.58,9.58,0,0,1,3.13-2.62,17.54,17.54,0,0,0-4.4,2,.49.49,0,0,1-.52,0A17.61,17.61,0,0,0,14,12.31ZM6.63,10.82h0a10.71,10.71,0,0,0,2.46.4.34.34,0,0,1,0-.1V8A17.54,17.54,0,0,0,5.92,10.6C6.16,10.68,6.39,10.76,6.63,10.82ZM28.26,8v3.14a.34.34,0,0,1,0,.1,10.8,10.8,0,0,0,2.47-.4h0c.23-.06.47-.14.7-.22A16.88,16.88,0,0,0,28.26,8Zm-.49,3.14Z"/>
            </g>
            <g>
              <polygon class="cls-6" points="36.86 4.79 27.77 6.93 27.56 6.98 20.13 8.74 18.68 9.08 17.23 8.74 9.79 6.98 9.59 6.93 0.5 4.79 9.59 2.64 16.54 1 18.68 0.5 20.81 1 27.77 2.64 36.86 4.79"/>
              <path d="M18.68,9.58l-.12,0L.38,5.27a.49.49,0,0,1,0-1L9.47,2.16,18.56,0h.23L37,4.31a.49.49,0,0,1,0,1L18.79,9.56Zm-16-4.79,16,3.78,16-3.78L27.65,3.13,18.68,1Z"/>
            </g>
            <g>
              <path class="cls-7" d="M36.86,23.64V41a18.09,18.09,0,0,1-6.44,13.88A18.12,18.12,0,0,1,24,41c0-.26,0-.53,0-.79a17.86,17.86,0,0,0,3.77-1.64,18.38,18.38,0,0,0,4.72-3.92,18.83,18.83,0,0,0,1.94-2.74,18.11,18.11,0,0,0,2.41-8.3Z"/>
              <path d="M30.42,55.41a.49.49,0,0,1-.32-.12A18.67,18.67,0,0,1,23.49,41c0-.26,0-.54,0-.81a.47.47,0,0,1,.35-.45,17.75,17.75,0,0,0,3.66-1.6,17.55,17.55,0,0,0,4.59-3.82,17.58,17.58,0,0,0,4.24-10.73.51.51,0,0,1,.33-.45l.07,0a.53.53,0,0,1,.42.1.49.49,0,0,1,.19.39V41A18.7,18.7,0,0,1,33,53a18,18,0,0,1-2.3,2.32A.49.49,0,0,1,30.42,55.41Zm-5.94-14.8V41a17.68,17.68,0,0,0,5.94,13.23,18.71,18.71,0,0,0,1.86-1.92A17.74,17.74,0,0,0,36.36,41V28.86a18.44,18.44,0,0,1-1.5,3.33,19.1,19.1,0,0,1-2,2.81A18.74,18.74,0,0,1,28,39,18.39,18.39,0,0,1,24.48,40.61Z"/>
            </g>
            <g>
              <path class="cls-7" d="M13.37,41A18.12,18.12,0,0,1,6.93,54.91,17.55,17.55,0,0,1,4.7,52.66,18.1,18.1,0,0,1,.5,41V23.64h0a18.2,18.2,0,0,0,9.08,15,17.77,17.77,0,0,0,3.76,1.64C13.37,40.5,13.37,40.77,13.37,41Z"/>
              <path d="M6.93,55.41a.51.51,0,0,1-.32-.12A18.66,18.66,0,0,1,0,41V23.64a.49.49,0,0,1,.19-.39.5.5,0,0,1,.41-.1l.07,0a.52.52,0,0,1,.34.45,17.61,17.61,0,0,0,2.35,8.07,17,17,0,0,0,1.88,2.66,17.69,17.69,0,0,0,8.26,5.42.49.49,0,0,1,.35.45c0,.27,0,.55,0,.81A18.64,18.64,0,0,1,7.25,55.29.47.47,0,0,1,6.93,55.41ZM1,28.86V41A17.69,17.69,0,0,0,5.08,52.34a18.61,18.61,0,0,0,1.85,1.92,17.65,17.65,0,0,0,6-13.23c0-.14,0-.28,0-.42A18.31,18.31,0,0,1,9.34,39a18.62,18.62,0,0,1-4.85-4A18.66,18.66,0,0,1,1,28.86Z"/>
            </g>
            <g>
              <rect class="cls-8" x="3.78" y="52.66" width="29.8" height="3.28"/>
              <path d="M33.58,56.43H3.78a.5.5,0,0,1-.5-.5V52.66a.5.5,0,0,1,.5-.5h29.8a.5.5,0,0,1,.5.5v3.27A.5.5,0,0,1,33.58,56.43Zm-29.31-1H33.08V53.15H4.27Z"/>
            </g>
            <g>
              <path class="cls-9" d="M36.86,54.3a1.63,1.63,0,0,1-1.64,1.63H33.58V52.66h1.64A1.63,1.63,0,0,1,36.86,54.3Z"/>
              <path d="M35.22,56.43H33.58a.5.5,0,0,1-.5-.5V52.66a.5.5,0,0,1,.5-.5h1.64a2.14,2.14,0,1,1,0,4.27Zm-1.14-1h1.14a1.15,1.15,0,0,0,0-2.29H34.08Z"/>
            </g>
            <g>
              <polygon class="cls-2" points="3.77 52.66 3.77 55.94 0.5 54.3 3.77 52.66"/>
              <path d="M3.78,56.43a.59.59,0,0,1-.23,0L.27,54.74a.5.5,0,0,1,0-.89l3.28-1.64a.53.53,0,0,1,.49,0,.51.51,0,0,1,.23.43v3.27a.51.51,0,0,1-.23.43A.48.48,0,0,1,3.78,56.43ZM1.6,54.3l1.68.83V53.46Z"/>
            </g>
            <g>
              <path class="cls-8" d="M22,29.83a6.94,6.94,0,0,0-3.27,5.9,7,7,0,0,0-3.27-5.9A9.1,9.1,0,0,0,17.06,28a8.71,8.71,0,0,0,.78-1.36.93.93,0,0,1,.83-.54h0a.94.94,0,0,1,.84.54A8.71,8.71,0,0,0,20.3,28,8.81,8.81,0,0,0,22,29.83Z"/>
              <path d="M18.68,36.22a.49.49,0,0,1-.5-.49,6.43,6.43,0,0,0-3-5.48.47.47,0,0,1-.24-.38.53.53,0,0,1,.18-.42,8.39,8.39,0,0,0,1.56-1.7,9.16,9.16,0,0,0,.74-1.29,1.44,1.44,0,0,1,1.28-.83h0a1.46,1.46,0,0,1,1.29.83,8.22,8.22,0,0,0,.73,1.29,8.69,8.69,0,0,0,1.56,1.7.49.49,0,0,1-.05.8,6.44,6.44,0,0,0-3,5.48A.49.49,0,0,1,18.68,36.22Zm-2.47-6.44A7.46,7.46,0,0,1,18.68,33a7.39,7.39,0,0,1,2.47-3.26,9.32,9.32,0,0,1-1.26-1.47,9.63,9.63,0,0,1-.82-1.43.47.47,0,0,0-.39-.26h0a.46.46,0,0,0-.38.26,9.63,9.63,0,0,1-.82,1.43A9.32,9.32,0,0,1,16.21,29.78Z"/>
            </g>
            <g>
              <polygon class="cls-10" points="34.59 5.32 34.59 8.6 32.57 9.08 32.57 5.8 34.59 5.32"/>
              <path d="M32.57,9.58a.5.5,0,0,1-.5-.5V5.8a.49.49,0,0,1,.38-.48l2-.48a.52.52,0,0,1,.42.09.51.51,0,0,1,.19.39V8.6a.49.49,0,0,1-.38.48l-2,.48Zm.49-3.39V8.45l1-.24V6Z"/>
            </g>
            <path class="cls-11" d="M12.09,52v1.64a.63.63,0,1,1-1.25,0V52a.63.63,0,1,1,1.25,0Z"/>
            <path class="cls-11" d="M14.12,52v1.64a.63.63,0,1,1-1.25,0V52a.63.63,0,1,1,1.25,0Z"/>
            <path class="cls-11" d="M16.15,52v1.64a.63.63,0,1,1-1.26,0V52a.63.63,0,1,1,1.26,0Z"/>
            <path class="cls-11" d="M22.46,52v1.64a.63.63,0,1,1-1.25,0V52a.63.63,0,1,1,1.25,0Z"/>
            <path class="cls-11" d="M24.49,52v1.64a.63.63,0,1,1-1.25,0V52a.63.63,0,1,1,1.25,0Z"/>
            <path class="cls-11" d="M26.52,52v1.64a.63.63,0,1,1-1.26,0V52a.63.63,0,1,1,1.26,0Z"/>
            <path d="M4.73,47.46a.48.48,0,0,1-.26-.07.5.5,0,0,1-.16-.68A10.71,10.71,0,0,0,5.93,41v-.11a.5.5,0,1,1,1,0V41a11.69,11.69,0,0,1-1.77,6.2A.48.48,0,0,1,4.73,47.46Z"/>
            <path d="M6.65,50.75a.51.51,0,0,1-.31-.11.49.49,0,0,1-.07-.7,14.14,14.14,0,0,0,3-7.21.5.5,0,0,1,.55-.44.5.5,0,0,1,.44.55A15.16,15.16,0,0,1,7,50.56.51.51,0,0,1,6.65,50.75Z"/>
            <path d="M30.7,50.75a.49.49,0,0,1-.38-.19,15.08,15.08,0,0,1-3.25-7.72.49.49,0,0,1,.43-.55.5.5,0,0,1,.55.44,14.07,14.07,0,0,0,3,7.21.5.5,0,0,1-.08.7A.51.51,0,0,1,30.7,50.75Z"/>
            <path d="M32.62,47.46a.51.51,0,0,1-.42-.23A11.69,11.69,0,0,1,30.43,41V40.9a.51.51,0,0,1,.5-.49h0a.48.48,0,0,1,.48.5V41A10.71,10.71,0,0,0,33,46.71a.49.49,0,0,1-.42.75Z"/>
          </g>
          <path id="Fairwater_Script_Bold" data-name="Fairwater Script Bold" d="M56.53,28.67a2.11,2.11,0,0,1,2.14-1.9,1.38,1.38,0,0,1,1.54,1.41,2.06,2.06,0,0,1-2.08,2A1.46,1.46,0,0,1,56.53,28.67ZM149.42,41.5a3.8,3.8,0,0,1-3.56,3,2.9,2.9,0,0,1-3.19-3.07c0-2.41,2.68-5.12,2.68-6.78,0-.51-.51-.87-1-1.14a61.31,61.31,0,0,1-3.22,5.65h0l-.24.35c-1.8,2.68-4.11,5-6.59,5A3.07,3.07,0,0,1,131,41.86a6.36,6.36,0,0,1-4.51,2.59,3.6,3.6,0,0,1-3.69-2.38,6.77,6.77,0,0,1-4.57,2.38c-1.85,0-3.09-.84-3.39-2.54A6.3,6.3,0,0,1,111.26,43a8,8,0,0,1-2-.24,7.28,7.28,0,0,1-4.46,1.72c-2.17,0-3.86-.93-4.49-2.7a10.46,10.46,0,0,1-7.16,2.7c-2.87,0-4.74-1-5.37-2.82a12.28,12.28,0,0,1-7.58,2.82c-2.28,0-3.8-.74-4.52-1.78a12.59,12.59,0,0,1-8,2.95c-3.63,0-6.57-1.47-7.6-4.1-1.51,1.71-3.24,2.93-5,2.93-2.08,0-3.44-1.12-3.44-3.34,0-2,1.21-4.91,2.29-7s1.78-2.56,2.56-2.56a1,1,0,0,1,1.15,1c0,.48-.39,1.33-1.54,3.16a13.8,13.8,0,0,0-1.69,5.43c0,1.08.46,1.5,1,1.5,1.26,0,2.89-1.93,4.25-4,0-.08.09-.15.13-.22.53-3.29,3.67-6,7.18-6.89a5.08,5.08,0,0,1-1.8-4c0-4.06,4.39-7,8.91-7a11,11,0,0,1,1.87.16,10.89,10.89,0,0,1,5.12-1.72c.78,0,1.2.36,1.2,1,0,.42-.27.69-1.14.94a16,16,0,0,0-2.5,1,4.08,4.08,0,0,1,1.69,3.31,4.48,4.48,0,0,1-4.49,4.55A3.45,3.45,0,0,1,72,26.05a5.19,5.19,0,0,1,1.33-3.23c-2.83.27-5.18,2.17-5.18,4.73a3.3,3.3,0,0,0,2.92,3.38c.6-.06,1.14-.16,1.63-.16,1.11,0,1.68.46,1.68,1.21s-.63,1.42-1.92,1.42c-.55,0-1.15-.19-2-.19-3.74,0-7.65,2.84-7.65,6.18,0,2.41,2,3.85,5.09,3.85a11.09,11.09,0,0,0,7.94-3.6c.18-.29.39-.62.64-1a43.4,43.4,0,0,0,3.37-6.36v-.42c0-2,1.3-3.37,2.41-3.37s1.57.54,1.57,1.29a7.38,7.38,0,0,1-1.23,2.86c.69,2.17,2.77,4.49,2.77,7.23a3.72,3.72,0,0,1-.49,1.84,12,12,0,0,0,2.81-2.9c.78-4.08,5.15-7.25,8.46-7.25,2.23,0,3.58,1.08,3.58,2.44a3,3,0,0,1-2.47,3,1.3,1.3,0,0,1-1.47-1.3,4.85,4.85,0,0,1,1-2.13,1.52,1.52,0,0,0-.72-.15c-2,0-5.3,3.16-5.3,6.68,0,1.57,1.08,2.32,2.77,2.32a7.82,7.82,0,0,0,6.69-3.67c.74-4,4.67-7.2,8.1-7.2,3,0,4.69,1.53,4.69,4.18a9,9,0,0,1-2.1,5.4,4.55,4.55,0,0,0,.69.06c1.2,0,2.39-.71,3.54-2.4a68.28,68.28,0,0,1,5-11.67c.85-1.63,1.84-2.56,2.47-2.56a1.11,1.11,0,0,1,1.21,1.11c0,1.18-1.75,4.19-3.68,7.47h0c-1.44,3.2-2.56,6.21-2.56,8,0,1,.45,1.47,1.06,1.47,1.25,0,2.88-1.86,4.23-3.94,1-3.79,4.85-7.14,8.42-7.14a2.91,2.91,0,0,1,2.74,1.53,2.31,2.31,0,0,1,1.92-1.53,1,1,0,0,1,1.15,1,6.69,6.69,0,0,1-1.24,2.53c-1.14,2.53-2,4.67-2,6.21,0,.93.39,1.35.87,1.35,1.26,0,2.86-1.92,4.21-4h0l.07-.11a.57.57,0,0,0,.08-.13,49.63,49.63,0,0,0,3.38-6.18V31.8c0-2.11,1.41-3.49,2.44-3.49a1.26,1.26,0,0,1,1.41,1.26,6.07,6.07,0,0,1-.87,2.32c1.24.69,2.83,1.26,2.83,2.65,0,2-2.74,4.55-2.74,7.05,0,.66.27,1,.75,1s1-.51,1.42-1.17a1.22,1.22,0,0,1,1-.73A.76.76,0,0,1,149.42,41.5ZM74.69,26.05a1.2,1.2,0,0,0,1.18,1.35c.93,0,1.69-1.11,1.69-2.23a2.07,2.07,0,0,0-1.24-1.92A3.78,3.78,0,0,0,74.69,26.05ZM82.53,40A10.84,10.84,0,0,0,81,35.2a39.89,39.89,0,0,1-2,3.46,1.12,1.12,0,0,1-.17.46c-.19.3-.4.6-.62.89A2.15,2.15,0,0,0,78,41a1.93,1.93,0,0,0,2.08,1.63A2.43,2.43,0,0,0,82.53,40Zm27.4-4.31c0-1.47-.69-2.13-1.71-2.13-2.08,0-5,3.28-5,6.62,0,1.54.87,2.29,2,2.29a3.54,3.54,0,0,0,2.2-.93.82.82,0,0,1-.12-.42,1.47,1.47,0,0,1,1.54-1.36A8.17,8.17,0,0,0,109.93,35.68Zm23.13-.78c-.12-.9-.78-1.44-1.92-1.44-2.35,0-5.49,3.82-5.49,7.25,0,1.21.61,1.81,1.42,1.81,1.2,0,2.44-1.26,3.58-3A24.89,24.89,0,0,0,133.06,34.9Z"/>
          <g id="Ubuntu_Mono_Regular" data-name="Ubuntu Mono Regular">
            <path d="M117.28,56.17a4.45,4.45,0,0,1-.23,1.45,3.35,3.35,0,0,1-.63,1.11,2.9,2.9,0,0,1-1,.72,3,3,0,0,1-1.24.26,2.89,2.89,0,0,1-2.19-1,3.35,3.35,0,0,1-.63-1.11,4.72,4.72,0,0,1,0-2.91,3.3,3.3,0,0,1,.63-1.12,3.08,3.08,0,0,1,1-.71,2.93,2.93,0,0,1,1.22-.26,3,3,0,0,1,2.22,1,3.3,3.3,0,0,1,.63,1.12A4.47,4.47,0,0,1,117.28,56.17Zm-1.24,0a3,3,0,0,0-.5-1.82,1.59,1.59,0,0,0-1.34-.66,1.57,1.57,0,0,0-1.32.66,3.59,3.59,0,0,0,0,3.62,1.57,1.57,0,0,0,1.32.66,1.59,1.59,0,0,0,1.34-.66A3,3,0,0,0,116,56.17Z"/>
            <path d="M118.58,53c.43-.1.87-.19,1.3-.25a10.68,10.68,0,0,1,1.22-.08,2.75,2.75,0,0,1,2.05.7,3.08,3.08,0,0,1,.69,2.24v4h-1.2V55.8a4.3,4.3,0,0,0-.11-1.06,1.61,1.61,0,0,0-.33-.64,1.12,1.12,0,0,0-.51-.31,2.27,2.27,0,0,0-.65-.09,4.59,4.59,0,0,0-.62,0,6,6,0,0,0-.63.09v5.72h-1.21Z"/>
            <path d="M128.37,59.71a2.73,2.73,0,0,1-1.06-.18,1.46,1.46,0,0,1-.67-.52,2.15,2.15,0,0,1-.35-.87,6,6,0,0,1-.1-1.2v-6.4h-2v-1h3.15v7.42a3.77,3.77,0,0,0,.07.83,1.38,1.38,0,0,0,.2.52.73.73,0,0,0,.34.27,1.45,1.45,0,0,0,.49.07,2.78,2.78,0,0,0,.78-.1,2.34,2.34,0,0,0,.57-.22l.18,1-.25.11a2.45,2.45,0,0,1-.38.12l-.47.11A3.12,3.12,0,0,1,128.37,59.71Z"/>
            <path d="M131.83,53.79h-2v-1H133v4.16a2.33,2.33,0,0,0,.28,1.35,1,1,0,0,0,.83.34,2.78,2.78,0,0,0,.78-.1,2.41,2.41,0,0,0,.56-.22l.18,1-.25.11a2.68,2.68,0,0,1-.37.12l-.47.11a3.08,3.08,0,0,1-.53,0,2.69,2.69,0,0,1-1.06-.18,1.48,1.48,0,0,1-.68-.52,2.16,2.16,0,0,1-.36-.87,6,6,0,0,1-.1-1.2Zm.3-2.06a.88.88,0,0,1-.65-.26.91.91,0,0,1-.28-.71.94.94,0,0,1,.28-.72.92.92,0,0,1,.65-.26.94.94,0,0,1,.67.26,1,1,0,0,1,.27.72.93.93,0,0,1-.27.71A.9.9,0,0,1,132.13,51.73Z"/>
            <path d="M136.85,53c.43-.1.87-.19,1.3-.25a10.68,10.68,0,0,1,1.22-.08,2.75,2.75,0,0,1,2,.7,3.08,3.08,0,0,1,.69,2.24v4h-1.19V55.8a3.82,3.82,0,0,0-.12-1.06,1.61,1.61,0,0,0-.33-.64,1.12,1.12,0,0,0-.51-.31,2.27,2.27,0,0,0-.65-.09,4.59,4.59,0,0,0-.62,0,6,6,0,0,0-.63.09v5.72h-1.21Z"/>
            <path d="M146.56,52.62a2.64,2.64,0,0,1,2.11.86,3.8,3.8,0,0,1,.75,2.58v.43h-4.84a2.15,2.15,0,0,0,.69,1.59,2.51,2.51,0,0,0,1.74.55,4.88,4.88,0,0,0,1.09-.1,3.12,3.12,0,0,0,.69-.22l.16,1a3.68,3.68,0,0,1-.79.25,5.54,5.54,0,0,1-1.28.13,4.07,4.07,0,0,1-1.54-.27,3,3,0,0,1-1.76-1.85,4.53,4.53,0,0,1-.21-1.41,4.16,4.16,0,0,1,.27-1.57,3.3,3.3,0,0,1,.73-1.11,3.09,3.09,0,0,1,1-.66A3.37,3.37,0,0,1,146.56,52.62Zm1.63,2.89a2,2,0,0,0-.45-1.36,1.52,1.52,0,0,0-1.2-.51,1.88,1.88,0,0,0-.76.16,1.83,1.83,0,0,0-.59.43,2,2,0,0,0-.4.59,3,3,0,0,0-.19.69Z"/>
          </g>
          <g id="Ubuntu_Regular" data-name="Ubuntu Regular">
            <path d="M2,72.6c1,0,1.42-.33,1.42-1a.92.92,0,0,0-.13-.51,1.06,1.06,0,0,0-.34-.36,2.08,2.08,0,0,0-.49-.27l-.58-.22A6.72,6.72,0,0,1,1.2,70a2.38,2.38,0,0,1-.55-.36,1.67,1.67,0,0,1-.37-.5,1.84,1.84,0,0,1,.45-2,2.4,2.4,0,0,1,1.59-.48,4.42,4.42,0,0,1,1.07.13,2.61,2.61,0,0,1,.7.27l-.29.74a2.6,2.6,0,0,0-.58-.24,3.46,3.46,0,0,0-.9-.11,2.36,2.36,0,0,0-.48,0,1.61,1.61,0,0,0-.4.17.8.8,0,0,0-.36.69.87.87,0,0,0,.1.44,1.06,1.06,0,0,0,.29.31,3,3,0,0,0,.44.25c.16.07.34.15.54.22a8,8,0,0,1,.77.34,2.33,2.33,0,0,1,.6.4,1.45,1.45,0,0,1,.4.55,2,2,0,0,1,.14.78,1.52,1.52,0,0,1-.62,1.3A2.85,2.85,0,0,1,2,73.38a5,5,0,0,1-.7,0l-.57-.12-.44-.15L0,72.92l.27-.74a4.13,4.13,0,0,0,.65.27A3.32,3.32,0,0,0,2,72.6Z"/>
            <path d="M9.67,70.82a3.11,3.11,0,0,1-.17,1,2.35,2.35,0,0,1-.47.8,2,2,0,0,1-.72.52,2.27,2.27,0,0,1-.91.18,2.32,2.32,0,0,1-.92-.18,2,2,0,0,1-.72-.52,2.35,2.35,0,0,1-.47-.8,3.27,3.27,0,0,1,0-2.08A2.4,2.4,0,0,1,5.76,69a2.05,2.05,0,0,1,.72-.51,2.17,2.17,0,0,1,.92-.19,2.12,2.12,0,0,1,.91.19A2.05,2.05,0,0,1,9,69a2.4,2.4,0,0,1,.47.81A3.11,3.11,0,0,1,9.67,70.82Zm-.9,0a2.11,2.11,0,0,0-.37-1.3,1.2,1.2,0,0,0-1-.48,1.18,1.18,0,0,0-1,.48,2.47,2.47,0,0,0,0,2.6,1.18,1.18,0,0,0,1,.48,1.2,1.2,0,0,0,1-.48A2.13,2.13,0,0,0,8.77,70.82Z"/>
            <path d="M12.34,73.33A1.62,1.62,0,0,1,11.21,73a1.35,1.35,0,0,1-.34-1V66.16l.87-.15v5.82a1.23,1.23,0,0,0,0,.36.43.43,0,0,0,.12.22.48.48,0,0,0,.22.13l.35.07Z"/>
            <path d="M17.29,73.1l-.79.16a7.4,7.4,0,0,1-1.13.08,2.4,2.4,0,0,1-.94-.16,1.5,1.5,0,0,1-.61-.46,1.87,1.87,0,0,1-.34-.71,3.57,3.57,0,0,1-.1-.89V68.39h.86v2.54a2.27,2.27,0,0,0,.28,1.27,1.11,1.11,0,0,0,1,.38h.28l.28,0,.24,0a.53.53,0,0,0,.16,0V68.39h.86Z"/>
            <path d="M21,73.35l-.1.23a1.16,1.16,0,0,1,.39.29.71.71,0,0,1,.12.45.63.63,0,0,1-.05.22.57.57,0,0,1-.16.23.73.73,0,0,1-.29.16,1.27,1.27,0,0,1-.46.07A2,2,0,0,1,20,75a1.48,1.48,0,0,1-.32-.08l.1-.53.24.06a1.14,1.14,0,0,0,.28,0c.22,0,.34-.07.34-.21a.22.22,0,0,0-.11-.18,2,2,0,0,0-.29-.14l-.06,0c0-.07.06-.16.1-.27s.09-.2.14-.3A2.14,2.14,0,0,1,19.6,73a1.94,1.94,0,0,1-.6-.54,2,2,0,0,1-.37-.75,3.36,3.36,0,0,1-.12-.92,3.32,3.32,0,0,1,.16-1,2.35,2.35,0,0,1,.47-.8,2,2,0,0,1,.73-.54,2.49,2.49,0,0,1,1-.19,3.49,3.49,0,0,1,.65.06,3.26,3.26,0,0,1,.63.18l-.2.73a2.37,2.37,0,0,0-.45-.15,3.1,3.1,0,0,0-.54,0,1.4,1.4,0,0,0-1.12.45,2,2,0,0,0-.38,1.34,2.62,2.62,0,0,0,.08.71,1.55,1.55,0,0,0,.28.56,1.18,1.18,0,0,0,.49.36,1.77,1.77,0,0,0,.73.13,2.35,2.35,0,0,0,.62-.07,1.9,1.9,0,0,0,.44-.14l.12.73-.2.08a1.91,1.91,0,0,1-.28.07l-.34.06Z"/>
            <path d="M27.27,70.82a3.11,3.11,0,0,1-.17,1,2.35,2.35,0,0,1-.47.8,2,2,0,0,1-.72.52,2.27,2.27,0,0,1-.91.18,2.32,2.32,0,0,1-.92-.18,2,2,0,0,1-.72-.52,2.35,2.35,0,0,1-.47-.8,3.27,3.27,0,0,1,0-2.08,2.4,2.4,0,0,1,.47-.81,2.05,2.05,0,0,1,.72-.51,2.17,2.17,0,0,1,.92-.19,2.12,2.12,0,0,1,.91.19,2.05,2.05,0,0,1,.72.51,2.4,2.4,0,0,1,.47.81A3.11,3.11,0,0,1,27.27,70.82Zm-.74-4.2-.12.26a1.35,1.35,0,0,1-.2.27,1.3,1.3,0,0,1-.29.22.86.86,0,0,1-.36.08.93.93,0,0,1-.34-.06l-.32-.14a1.4,1.4,0,0,0-.27-.11.52.52,0,0,0-.21,0,.39.39,0,0,0-.29.13,1.08,1.08,0,0,0-.21.28l-.45-.22a.85.85,0,0,1,.12-.26,1.42,1.42,0,0,1,.2-.28,1.54,1.54,0,0,1,.29-.21.74.74,0,0,1,.36-.09,1,1,0,0,1,.35.06l.31.14a1.4,1.4,0,0,0,.27.11.52.52,0,0,0,.21,0,.41.41,0,0,0,.3-.13,1.08,1.08,0,0,0,.21-.28Zm-.16,4.2a2.11,2.11,0,0,0-.37-1.3,1.29,1.29,0,0,0-2,0,2.53,2.53,0,0,0,0,2.6,1.29,1.29,0,0,0,2,0A2.13,2.13,0,0,0,26.37,70.82Z"/>
            <path d="M28.22,70.83a3,3,0,0,1,.19-1.13,2.16,2.16,0,0,1,.49-.79,2,2,0,0,1,.71-.48,2.3,2.3,0,0,1,.82-.16,1.89,1.89,0,0,1,1.5.61,2.81,2.81,0,0,1,.52,1.86v.15a.81.81,0,0,1,0,.16H29.12a1.86,1.86,0,0,0,.44,1.15,1.61,1.61,0,0,0,1.19.39,3.31,3.31,0,0,0,.77-.08,2.27,2.27,0,0,0,.47-.16l.12.73a2.17,2.17,0,0,1-.55.18,4,4,0,0,1-.9.09,2.76,2.76,0,0,1-1.09-.19,2,2,0,0,1-.76-.53,2.2,2.2,0,0,1-.45-.79A3.62,3.62,0,0,1,28.22,70.83Zm3.33-.48a1.49,1.49,0,0,0-.3-1,1,1,0,0,0-.83-.38,1.12,1.12,0,0,0-.53.12,1,1,0,0,0-.38.3,1.31,1.31,0,0,0-.25.43,2.07,2.07,0,0,0-.12.49Z"/>
            <path d="M34.82,72.62a1.74,1.74,0,0,0,.79-.14.49.49,0,0,0,.26-.45.63.63,0,0,0-.25-.51,4.22,4.22,0,0,0-.83-.41l-.54-.23a1.75,1.75,0,0,1-.44-.28,1.26,1.26,0,0,1-.3-.38,1.28,1.28,0,0,1-.11-.55,1.24,1.24,0,0,1,.47-1,2.05,2.05,0,0,1,1.3-.38,2.83,2.83,0,0,1,.41,0l.38,0,.31.07.21.07-.15.74a2.19,2.19,0,0,0-.44-.15,3,3,0,0,0-.72-.08,1.39,1.39,0,0,0-.63.14.49.49,0,0,0-.27.46.64.64,0,0,0,.06.28.6.6,0,0,0,.18.21,1.82,1.82,0,0,0,.31.19l.45.17.62.26a1.9,1.9,0,0,1,.46.29,1.18,1.18,0,0,1,.29.41,1.44,1.44,0,0,1,.1.58,1.16,1.16,0,0,1-.49,1,2.52,2.52,0,0,1-1.43.34,3.37,3.37,0,0,1-1-.11,4,4,0,0,1-.49-.16l.15-.74.48.16A2.54,2.54,0,0,0,34.82,72.62Z"/>
            <path d="M40.82,68.39h1.83v.73H40.82v2.24a2.58,2.58,0,0,0,0,.6.85.85,0,0,0,.17.37.61.61,0,0,0,.28.19,1.14,1.14,0,0,0,.39.06,1.83,1.83,0,0,0,.63-.09l.33-.13.17.72a3.19,3.19,0,0,1-.46.16,2.45,2.45,0,0,1-.74.1,2.37,2.37,0,0,1-.82-.12,1.26,1.26,0,0,1-.52-.38,1.52,1.52,0,0,1-.27-.62,4.31,4.31,0,0,1-.08-.85V67l.87-.15Z"/>
            <path d="M43.39,70.83a3.23,3.23,0,0,1,.18-1.13,2.32,2.32,0,0,1,.5-.79,2.08,2.08,0,0,1,.7-.48,2.39,2.39,0,0,1,.82-.16,1.86,1.86,0,0,1,1.5.61,2.81,2.81,0,0,1,.53,1.86v.15c0,.06,0,.11,0,.16H44.29a1.8,1.8,0,0,0,.44,1.15,1.59,1.59,0,0,0,1.19.39,3.31,3.31,0,0,0,.77-.08,2.5,2.5,0,0,0,.47-.16l.12.73a2.17,2.17,0,0,1-.55.18,4.16,4.16,0,0,1-.9.09,2.85,2.85,0,0,1-1.1-.19,2.08,2.08,0,0,1-.76-.53,2.18,2.18,0,0,1-.44-.79A3.29,3.29,0,0,1,43.39,70.83Zm3.32-.48a1.43,1.43,0,0,0-.29-1,1,1,0,0,0-.83-.38,1.12,1.12,0,0,0-.53.12,1.14,1.14,0,0,0-.39.3,1.29,1.29,0,0,0-.24.43,2.07,2.07,0,0,0-.12.49Z"/>
            <path d="M51,73.35a2.56,2.56,0,0,1-1-.19,2,2,0,0,1-.74-.52,2.08,2.08,0,0,1-.46-.79,3.31,3.31,0,0,1-.15-1,3,3,0,0,1,.17-1,2.33,2.33,0,0,1,.46-.8,2.08,2.08,0,0,1,.73-.54,2.49,2.49,0,0,1,1-.19,3.68,3.68,0,0,1,.66.06,3.38,3.38,0,0,1,.62.18l-.19.73a2.76,2.76,0,0,0-.46-.15A3.1,3.1,0,0,0,51,69a1.4,1.4,0,0,0-1.12.45,2.08,2.08,0,0,0-.38,1.34,2.6,2.6,0,0,0,.09.71,1.41,1.41,0,0,0,.28.56,1.12,1.12,0,0,0,.49.36,1.72,1.72,0,0,0,.72.13,2.48,2.48,0,0,0,.63-.07,2,2,0,0,0,.43-.14l.13.73-.22.09a2.21,2.21,0,0,1-.32.07l-.37.06Z"/>
            <path d="M53.2,68.53c.2,0,.46-.1.79-.15a6.43,6.43,0,0,1,1.14-.09,2.46,2.46,0,0,1,1,.17,1.54,1.54,0,0,1,.61.45,1.93,1.93,0,0,1,.32.71,4.16,4.16,0,0,1,.09.9v2.72h-.87V70.71a4.22,4.22,0,0,0-.06-.77,1.19,1.19,0,0,0-.2-.51.77.77,0,0,0-.37-.29,1.93,1.93,0,0,0-.58-.08h-.29l-.28,0-.24,0-.16,0v4.09H53.2Z"/>
            <path d="M62.82,70.82a3.11,3.11,0,0,1-.17,1,2.35,2.35,0,0,1-.47.8,2,2,0,0,1-.72.52,2.27,2.27,0,0,1-.91.18,2.32,2.32,0,0,1-.92-.18,2,2,0,0,1-.72-.52,2.35,2.35,0,0,1-.47-.8,3.27,3.27,0,0,1,0-2.08,2.4,2.4,0,0,1,.47-.81,2.22,2.22,0,0,1,1.64-.7,2.12,2.12,0,0,1,.91.19,2.05,2.05,0,0,1,.72.51,2.4,2.4,0,0,1,.47.81A3.11,3.11,0,0,1,62.82,70.82Zm-.9,0a2.11,2.11,0,0,0-.37-1.3,1.2,1.2,0,0,0-1-.48,1.19,1.19,0,0,0-1,.48,2.47,2.47,0,0,0,0,2.6,1.19,1.19,0,0,0,1,.48,1.2,1.2,0,0,0,1-.48A2.13,2.13,0,0,0,61.92,70.82Z"/>
            <path d="M65.49,73.33A1.62,1.62,0,0,1,64.36,73,1.35,1.35,0,0,1,64,72V66.16l.87-.15v5.82a1.23,1.23,0,0,0,0,.36.43.43,0,0,0,.12.22.48.48,0,0,0,.22.13l.35.07Z"/>
            <path d="M70.86,70.82a2.87,2.87,0,0,1-.17,1,2.35,2.35,0,0,1-.47.8,2,2,0,0,1-.72.52,2.27,2.27,0,0,1-.91.18,2.32,2.32,0,0,1-.92-.18,2,2,0,0,1-.72-.52,2.35,2.35,0,0,1-.47-.8,3.27,3.27,0,0,1,0-2.08A2.4,2.4,0,0,1,67,69a2.22,2.22,0,0,1,1.64-.7,2.12,2.12,0,0,1,.91.19,2.05,2.05,0,0,1,.72.51,2.4,2.4,0,0,1,.47.81A2.87,2.87,0,0,1,70.86,70.82Zm-.9,0a2.11,2.11,0,0,0-.37-1.3,1.2,1.2,0,0,0-1-.48,1.19,1.19,0,0,0-1,.48,2.47,2.47,0,0,0,0,2.6,1.19,1.19,0,0,0,1,.48,1.2,1.2,0,0,0,1-.48A2.13,2.13,0,0,0,70,70.82Zm-.24-4.26L68.4,67.84l-.44-.4L69.16,66Z"/>
            <path d="M75.12,72.75a2.6,2.6,0,0,1-.43.2,2.47,2.47,0,0,1-.75.11,2.26,2.26,0,0,1-.83-.14,1.64,1.64,0,0,1-.67-.43,2,2,0,0,1-.46-.73,3,3,0,0,1-.17-1.05,2.78,2.78,0,0,1,.16-1,2.24,2.24,0,0,1,.46-.76,2,2,0,0,1,.74-.51,2.57,2.57,0,0,1,1-.18,5.59,5.59,0,0,1,1.06.09l.76.16v4.33a2.07,2.07,0,0,1-.58,1.62,2.65,2.65,0,0,1-1.75.5,4.79,4.79,0,0,1-.87-.07,4.72,4.72,0,0,1-.7-.18l.16-.76a4.57,4.57,0,0,0,.64.19,4,4,0,0,0,.79.08,1.67,1.67,0,0,0,1.11-.31,1.25,1.25,0,0,0,.34-1Zm0-3.59a1.94,1.94,0,0,0-.35-.07,4.58,4.58,0,0,0-.59,0,1.33,1.33,0,0,0-1.08.45,1.86,1.86,0,0,0-.38,1.21,2.18,2.18,0,0,0,.11.72,1.39,1.39,0,0,0,.29.49,1,1,0,0,0,.42.29,1.19,1.19,0,0,0,.49.1,2.08,2.08,0,0,0,.63-.1,1.51,1.51,0,0,0,.46-.23Z"/>
            <path d="M77.89,67.52a.53.53,0,0,1-.55-.57.55.55,0,0,1,.55-.57.54.54,0,0,1,.4.16.53.53,0,0,1,.16.41.53.53,0,0,1-.56.57Zm.44,5.72h-.86V68.39h.86Z"/>
            <path d="M81.93,73.35a2.53,2.53,0,0,1-1-.19,2,2,0,0,1-.75-.52,2.2,2.2,0,0,1-.45-.79,3.31,3.31,0,0,1-.15-1,3,3,0,0,1,.17-1,2.18,2.18,0,0,1,.46-.8,2.08,2.08,0,0,1,.73-.54,2.49,2.49,0,0,1,1-.19,3.49,3.49,0,0,1,.65.06,3.26,3.26,0,0,1,.63.18l-.2.73a2.37,2.37,0,0,0-.45-.15A3.1,3.1,0,0,0,82,69a1.4,1.4,0,0,0-1.12.45,2.08,2.08,0,0,0-.38,1.34,2.6,2.6,0,0,0,.09.71,1.39,1.39,0,0,0,.27.56,1.18,1.18,0,0,0,.49.36,1.77,1.77,0,0,0,.73.13,2.35,2.35,0,0,0,.62-.07,1.9,1.9,0,0,0,.44-.14l.12.73L83,73.2a2.21,2.21,0,0,1-.32.07l-.37.06Z"/>
            <path d="M85.72,68.27a2.5,2.5,0,0,1,.88.14,1.36,1.36,0,0,1,.89,1,2.86,2.86,0,0,1,.09.75v3l-.31,0-.45.06-.55,0-.58,0a3.52,3.52,0,0,1-.75-.08,1.83,1.83,0,0,1-.6-.27,1.15,1.15,0,0,1-.39-.48,1.73,1.73,0,0,1-.14-.71,1.35,1.35,0,0,1,.16-.69,1.27,1.27,0,0,1,.45-.47,1.81,1.81,0,0,1,.65-.26,3.33,3.33,0,0,1,.78-.08h.27l.27,0,.22,0,.13,0v-.25a2,2,0,0,0,0-.42,1,1,0,0,0-.17-.37.78.78,0,0,0-.33-.26,1.21,1.21,0,0,0-.54-.1,4.06,4.06,0,0,0-.75.06,2,2,0,0,0-.48.13l-.11-.72a3,3,0,0,1,.56-.15A5.62,5.62,0,0,1,85.72,68.27Zm.07,4.35.55,0a3.34,3.34,0,0,0,.4,0V71.11a.91.91,0,0,0-.31-.08,2.47,2.47,0,0,0-.5,0,3.07,3.07,0,0,0-.42,0,1.25,1.25,0,0,0-.4.12.89.89,0,0,0-.3.24.65.65,0,0,0-.12.41.7.7,0,0,0,.29.64A1.56,1.56,0,0,0,85.79,72.62Z"/>
            <path d="M90.15,72.62a1.72,1.72,0,0,0,.78-.14.49.49,0,0,0,.26-.45.61.61,0,0,0-.25-.51,4.22,4.22,0,0,0-.83-.41l-.54-.23a1.75,1.75,0,0,1-.44-.28,1.26,1.26,0,0,1-.3-.38,1.28,1.28,0,0,1-.11-.55,1.23,1.23,0,0,1,.48-1,2,2,0,0,1,1.29-.38,2.83,2.83,0,0,1,.41,0l.38,0,.31.07.21.07-.15.74a2.19,2.19,0,0,0-.44-.15,3,3,0,0,0-.72-.08,1.39,1.39,0,0,0-.63.14.49.49,0,0,0-.27.46.64.64,0,0,0,.06.28.6.6,0,0,0,.18.21,1.59,1.59,0,0,0,.32.19l.44.17.62.26a1.9,1.9,0,0,1,.46.29,1.18,1.18,0,0,1,.29.41,1.43,1.43,0,0,1,.11.58,1.17,1.17,0,0,1-.5,1,2.51,2.51,0,0,1-1.42.34,3.4,3.4,0,0,1-1-.11,4,4,0,0,1-.49-.16l.15-.74.48.16A2.6,2.6,0,0,0,90.15,72.62Z"/>
            <path d="M95.06,70.83a3.23,3.23,0,0,1,.18-1.13,2.32,2.32,0,0,1,.5-.79,2.08,2.08,0,0,1,.7-.48,2.34,2.34,0,0,1,.82-.16,1.86,1.86,0,0,1,1.5.61,2.81,2.81,0,0,1,.53,1.86v.15c0,.06,0,.11,0,.16H96a1.8,1.8,0,0,0,.44,1.15,1.59,1.59,0,0,0,1.19.39,3.37,3.37,0,0,0,.77-.08,2.5,2.5,0,0,0,.47-.16l.12.73a2.32,2.32,0,0,1-.55.18,4.16,4.16,0,0,1-.9.09,2.81,2.81,0,0,1-1.1-.19,2,2,0,0,1-.76-.53,2.18,2.18,0,0,1-.44-.79A3.29,3.29,0,0,1,95.06,70.83Zm3.32-.48a1.43,1.43,0,0,0-.29-1,1,1,0,0,0-.84-.38,1.11,1.11,0,0,0-.52.12,1.14,1.14,0,0,0-.39.3,1.52,1.52,0,0,0-.25.43,2.68,2.68,0,0,0-.11.49Z"/>
            <path d="M100.53,68.53c.2,0,.46-.1.79-.15a6.31,6.31,0,0,1,1.13-.09,2.08,2.08,0,0,1,.79.13,1.31,1.31,0,0,1,.53.37,1,1,0,0,1,.2-.13,2.3,2.3,0,0,1,.35-.17,3.45,3.45,0,0,1,.45-.14,2.35,2.35,0,0,1,.54-.06,2.19,2.19,0,0,1,.92.17,1.24,1.24,0,0,1,.55.46,1.9,1.9,0,0,1,.27.7,5.14,5.14,0,0,1,.07.9v2.72h-.87V70.71a5.22,5.22,0,0,0,0-.74,1.33,1.33,0,0,0-.16-.51.71.71,0,0,0-.31-.31,1.31,1.31,0,0,0-.52-.09,2.1,2.1,0,0,0-.72.11,1.61,1.61,0,0,0-.39.21,2.76,2.76,0,0,1,.11.53,4.08,4.08,0,0,1,0,.61v2.72h-.87V70.71a5.22,5.22,0,0,0,0-.74,1.33,1.33,0,0,0-.17-.51.71.71,0,0,0-.31-.31,1.29,1.29,0,0,0-.51-.09h-.28l-.28,0-.25,0-.15,0v4.09h-.87Z"/>
            <path d="M110.44,70.83a3.23,3.23,0,0,1,.18-1.13,2.32,2.32,0,0,1,.5-.79,2,2,0,0,1,.71-.48,2.29,2.29,0,0,1,.81-.16,1.86,1.86,0,0,1,1.5.61,2.81,2.81,0,0,1,.53,1.86v.15c0,.06,0,.11,0,.16h-3.32a1.8,1.8,0,0,0,.44,1.15,1.59,1.59,0,0,0,1.19.39,3.31,3.31,0,0,0,.77-.08,2.5,2.5,0,0,0,.47-.16l.12.73a2.17,2.17,0,0,1-.55.18,4.16,4.16,0,0,1-.9.09,2.85,2.85,0,0,1-1.1-.19,2.08,2.08,0,0,1-.76-.53,2.34,2.34,0,0,1-.44-.79A3.29,3.29,0,0,1,110.44,70.83Zm3.32-.48a1.43,1.43,0,0,0-.29-1,1,1,0,0,0-.83-.38,1.12,1.12,0,0,0-.53.12,1.14,1.14,0,0,0-.39.3,1.29,1.29,0,0,0-.24.43,2.07,2.07,0,0,0-.12.49Z"/>
            <path d="M119,66.16l.87-.15V73.1c-.2.06-.45.11-.76.17a6.77,6.77,0,0,1-1.07.08,2.67,2.67,0,0,1-1-.18,2,2,0,0,1-.76-.5,2,2,0,0,1-.49-.8,2.89,2.89,0,0,1-.18-1.05,3.33,3.33,0,0,1,.15-1,2.43,2.43,0,0,1,.42-.8,2,2,0,0,1,.69-.52,2.1,2.1,0,0,1,.92-.19,2.47,2.47,0,0,1,.75.11,2.34,2.34,0,0,1,.47.22Zm0,3.26a1.53,1.53,0,0,0-.45-.25,1.75,1.75,0,0,0-.65-.12,1.41,1.41,0,0,0-.64.13,1.32,1.32,0,0,0-.44.37,1.63,1.63,0,0,0-.24.57,3.14,3.14,0,0,0-.07.7,1.89,1.89,0,0,0,.42,1.31,1.46,1.46,0,0,0,1.12.46,3.34,3.34,0,0,0,.59,0,1.75,1.75,0,0,0,.36-.07Z"/>
            <path d="M125.26,73.1l-.79.16a7.4,7.4,0,0,1-1.13.08,2.37,2.37,0,0,1-.94-.16,1.53,1.53,0,0,1-.62-.46,2,2,0,0,1-.33-.71,3.57,3.57,0,0,1-.1-.89V68.39h.86v2.54a2.27,2.27,0,0,0,.28,1.27,1.1,1.1,0,0,0,.94.38h.29l.28,0,.24,0a.39.39,0,0,0,.15,0V68.39h.87Z"/>
            <path d="M128.86,73.35a2.49,2.49,0,0,1-1-.19,1.91,1.91,0,0,1-.75-.52,2.2,2.2,0,0,1-.45-.79,3.31,3.31,0,0,1-.15-1,3.05,3.05,0,0,1,.16-1,2.33,2.33,0,0,1,.46-.8,2.12,2.12,0,0,1,.74-.54,2.45,2.45,0,0,1,1-.19,3.57,3.57,0,0,1,.65.06,3.26,3.26,0,0,1,.63.18l-.2.73a2.37,2.37,0,0,0-.45-.15,3.12,3.12,0,0,0-.55,0,1.39,1.39,0,0,0-1.11.45,2,2,0,0,0-.39,1.34,2.6,2.6,0,0,0,.09.71,1.41,1.41,0,0,0,.28.56,1.18,1.18,0,0,0,.49.36,1.77,1.77,0,0,0,.73.13,2.4,2.4,0,0,0,.62-.07,2.08,2.08,0,0,0,.44-.14l.12.73-.21.09-.32.07-.38.06Z"/>
            <path d="M132.65,68.27a2.54,2.54,0,0,1,.88.14,1.5,1.5,0,0,1,.58.38,1.66,1.66,0,0,1,.31.59,2.86,2.86,0,0,1,.09.75v3l-.31,0-.45.06-.55,0-.58,0a3.62,3.62,0,0,1-.76-.08,1.78,1.78,0,0,1-.59-.27,1.15,1.15,0,0,1-.39-.48,1.58,1.58,0,0,1-.14-.71,1.35,1.35,0,0,1,.16-.69,1.33,1.33,0,0,1,.44-.47,2,2,0,0,1,.65-.26,3.36,3.36,0,0,1,.79-.08h.27l.26,0,.22,0,.13,0v-.25a2,2,0,0,0,0-.42,1.14,1.14,0,0,0-.17-.37.78.78,0,0,0-.33-.26,1.23,1.23,0,0,0-.55-.1,4.22,4.22,0,0,0-.75.06,2.26,2.26,0,0,0-.48.13l-.1-.72a2.79,2.79,0,0,1,.56-.15A5.51,5.51,0,0,1,132.65,68.27Zm.07,4.35.55,0,.39,0V71.11a.79.79,0,0,0-.3-.08,2.51,2.51,0,0,0-.51,0l-.41,0a1.25,1.25,0,0,0-.4.12.92.92,0,0,0-.31.24.65.65,0,0,0-.12.41.68.68,0,0,0,.3.64A1.56,1.56,0,0,0,132.72,72.62Z"/>
            <path d="M138.16,73.35l-.1.23a1.16,1.16,0,0,1,.39.29.71.71,0,0,1,.12.45.6.6,0,0,1,0,.22.87.87,0,0,1-.16.23.86.86,0,0,1-.3.16,1.27,1.27,0,0,1-.46.07,2,2,0,0,1-.44,0,1.65,1.65,0,0,1-.32-.08l.1-.53.24.06a1.2,1.2,0,0,0,.28,0c.23,0,.34-.07.34-.21a.24.24,0,0,0-.1-.18l-.29-.14-.07,0c0-.07.06-.16.1-.27l.14-.3a2.19,2.19,0,0,1-.83-.27,1.94,1.94,0,0,1-.6-.54,2.18,2.18,0,0,1-.36-.75,3.35,3.35,0,0,1-.13-.92,3,3,0,0,1,.17-1,2.33,2.33,0,0,1,.46-.8,2.08,2.08,0,0,1,.73-.54,2.49,2.49,0,0,1,1-.19,3.68,3.68,0,0,1,.66.06,3.38,3.38,0,0,1,.62.18l-.19.73a2.76,2.76,0,0,0-.46-.15,3.1,3.1,0,0,0-.54,0,1.36,1.36,0,0,0-1.11.45,2,2,0,0,0-.39,1.34,2.6,2.6,0,0,0,.09.71,1.41,1.41,0,0,0,.28.56,1.12,1.12,0,0,0,.49.36,1.72,1.72,0,0,0,.72.13,2.48,2.48,0,0,0,.63-.07,2,2,0,0,0,.43-.14l.13.73-.2.08-.29.07-.34.06Z"/>
            <path d="M141.84,68.27a2.5,2.5,0,0,1,.88.14,1.5,1.5,0,0,1,.58.38,1.4,1.4,0,0,1,.31.59,2.84,2.84,0,0,1,.1.75v3l-.32,0-.45.06-.54,0-.59,0a3.52,3.52,0,0,1-.75-.08,1.83,1.83,0,0,1-.6-.27,1.33,1.33,0,0,1-.39-.48,1.73,1.73,0,0,1-.14-.71,1.36,1.36,0,0,1,.17-.69,1.17,1.17,0,0,1,.44-.47,1.81,1.81,0,0,1,.65-.26,3.33,3.33,0,0,1,.78-.08h.27l.27,0,.22,0,.13,0v-.25a2,2,0,0,0-.05-.42,1,1,0,0,0-.17-.37.78.78,0,0,0-.33-.26,1.21,1.21,0,0,0-.54-.1,4.06,4.06,0,0,0-.75.06,2,2,0,0,0-.48.13l-.1-.72a2.65,2.65,0,0,1,.55-.15A5.73,5.73,0,0,1,141.84,68.27Zm1.68-1.65a2.08,2.08,0,0,1-.13.26,1.05,1.05,0,0,1-.2.27,1.24,1.24,0,0,1-.28.22.86.86,0,0,1-.36.08,1,1,0,0,1-.35-.06l-.31-.14-.27-.11a.6.6,0,0,0-.22,0,.41.41,0,0,0-.29.13,1.08,1.08,0,0,0-.21.28l-.45-.22a1.26,1.26,0,0,1,.13-.26,1.1,1.1,0,0,1,.2-.28,1.46,1.46,0,0,1,.28-.21.74.74,0,0,1,.36-.09,1,1,0,0,1,.35.06l.31.14.27.11a.6.6,0,0,0,.22,0,.41.41,0,0,0,.29-.13,1.08,1.08,0,0,0,.21-.28Zm-1.6,6,.54,0a3.34,3.34,0,0,0,.4,0V71.11a.85.85,0,0,0-.31-.08,2.35,2.35,0,0,0-.5,0l-.42,0a1.33,1.33,0,0,0-.4.12.89.89,0,0,0-.3.24.65.65,0,0,0-.12.41.68.68,0,0,0,.3.64A1.54,1.54,0,0,0,141.92,72.62Z"/>
            <path d="M149.42,70.82a3.11,3.11,0,0,1-.17,1,2.35,2.35,0,0,1-.47.8,2,2,0,0,1-.72.52,2.32,2.32,0,0,1-.92.18,2.27,2.27,0,0,1-.91-.18,2,2,0,0,1-.72-.52,2.35,2.35,0,0,1-.47-.8,3.27,3.27,0,0,1,0-2.08,2.4,2.4,0,0,1,.47-.81,2.05,2.05,0,0,1,.72-.51,2.12,2.12,0,0,1,.91-.19,2.17,2.17,0,0,1,.92.19,2.05,2.05,0,0,1,.72.51,2.4,2.4,0,0,1,.47.81A3.11,3.11,0,0,1,149.42,70.82Zm-.91,0a2.11,2.11,0,0,0-.36-1.3,1.29,1.29,0,0,0-2,0,2.47,2.47,0,0,0,0,2.6,1.29,1.29,0,0,0,2,0A2.13,2.13,0,0,0,148.51,70.82Z"/>
          </g>
        </g>
      </g>
    </g>
  </g>
</svg>
