<svg id="Camada_1" data-name="Camada 1" xmlns="http://www.w3.org/2000/svg" viewBox="0 0 600 600">
  <defs>
    <style>
      .cls-1 {
        fill: #1a1a1a;
      }
    </style>
  </defs>
  <title>raounded-circle-account</title>
  <g id="Camada_2" data-name="Camada 2">
    <g>
      <path class="cls-1" d="M214.82,261.42A52.68,52.68,0,1,0,267.5,314.1,52.74,52.74,0,0,0,214.82,261.42Zm0,92.9A40.22,40.22,0,1,1,230.4,277a15.35,15.35,0,1,0,21.5,21.5,40.23,40.23,0,0,1-37.08,55.81Z"/>
      <polygon class="cls-1" points="444.48 155.75 434.78 158.04 434.78 179.21 444.48 176.92 444.48 155.75"/>
      <path class="cls-1" d="M303.66,351.86a4.07,4.07,0,0,0-3.61-2.4l-.05-4.65,0,4.65a4,4,0,0,0-3.63,2.4,90.4,90.4,0,0,1-19.48,27.19A69.28,69.28,0,0,1,300,409.58,69.34,69.34,0,0,1,323.12,379a89.78,89.78,0,0,1-19.46-27.18Z"/>
      <path class="cls-1" d="M241,202.28a173.3,173.3,0,0,1,54.36,19.42V188.76l-75.88-17.91v29a176.13,176.13,0,0,1,21.43,2.46Z"/>
      <path class="cls-1" d="M307.34,220.22c.68-.37,1.36-.72,2.05-1.08l1.33-.69,2.26-1.12,1.14-.56c1-.51,2.09-1,3.14-1.48l.3-.14q1.72-.78,3.48-1.53l1-.44,2.45-1,1.34-.53,2.19-.85,1.47-.54,2.1-.76,1.53-.53c.69-.23,1.37-.47,2.06-.69l1.57-.51,2.07-.64,1.58-.47,2.09-.6,1.58-.44,2.13-.55,1.55-.4,2.25-.53,1.47-.34c.82-.19,1.66-.36,2.49-.53l1.24-.26c1.25-.25,2.5-.49,3.76-.72h.09a174,174,0,0,1,21.43-2.46v-29l-75.89,17.91v32.93l1.3-.71Z"/>
      <path class="cls-1" d="M428.63,195.45a100,100,0,0,0,14.81-8.74L431.2,189.6a4.88,4.88,0,0,1-1.07.12,4.65,4.65,0,0,1-4.65-4.64V160.23l-30.12,7.12A175.1,175.1,0,0,1,428.63,195.45Z"/>
      <path class="cls-1" d="M332.49,314.1a52.69,52.69,0,1,0,52.69-52.68A52.75,52.75,0,0,0,332.49,314.1ZM410,304.61a15.33,15.33,0,0,0,12.23-6.1,40.18,40.18,0,1,1-21.5-21.5,15.36,15.36,0,0,0,9.27,27.6Z"/>
      <path class="cls-1" d="M300,0C134.31,0,0,134.31,0,300S134.31,600,300,600,600,465.69,600,300,465.69,0,300,0ZM466.6,163.81a4.65,4.65,0,0,1,8.4,2.74v317.9a174.09,174.09,0,0,1-1.45,22.4A268.5,268.5,0,0,1,433,535a100.45,100.45,0,0,1-13.6-50.58v-1.11a4.65,4.65,0,1,0-9.29-.15v1.26a109.68,109.68,0,0,0,14.73,55q-9.67,5.07-19.78,9.33l-1.34.56a132.56,132.56,0,0,1-15.93-49,4.64,4.64,0,1,0-9.22,1.09A141.63,141.63,0,0,0,395,552.81a266.84,266.84,0,0,1-31.61,9.72,174.74,174.74,0,0,1-18.36-78.08v-1.22l-.76.2-1.5.38-1.56.39-1.29.31-1.79.4-1.11.25-2,.41-1,.2c-.69.13-1.39.27-2.09.39l-.89.17-2.12.37c-.3,0-.59.1-.89.15l-1.93.29-1.12.17-1,.14-1.94.26c-.75.1-1.5.19-2.26.27l-.2,0-.21,0c-5.67.63-11.44,1-17.2,1h-.35l-1.9,0-1.08,0h-1.2a171.74,171.74,0,0,1-18.16-1.16l-1.68-.2-1.43-.19-1.55-.21-1-.15-2-.31-1-.17-2-.34-1.12-.21-1.83-.35-1.28-.26-1.64-.34-1.45-.32-1.44-.33c-.54-.12-1.08-.25-1.61-.39s-.83-.19-1.24-.3l-1.78-.46-.59-.15c0,.41,0,.82,0,1.22a174.61,174.61,0,0,1-18.37,78.08A266.84,266.84,0,0,1,205,552.81a141.63,141.63,0,0,0,16.44-51.4,4.65,4.65,0,1,0-9.23-1.09,132.36,132.36,0,0,1-15.92,49l-1.34-.56q-10.11-4.27-19.78-9.33a109.69,109.69,0,0,0,14.74-55c0-.44,0-.89,0-1.32a4.65,4.65,0,1,0-9.29.28c0,.35,0,.7,0,1A100.32,100.32,0,0,1,167,535a267.13,267.13,0,0,1-40.51-28.17,174.09,174.09,0,0,1-1.45-22.4V166.55a4.65,4.65,0,0,1,8.4-2.74,101.09,101.09,0,0,0,38,31.64,175.47,175.47,0,0,1,33.28-28.1l-76.06-18a4.64,4.64,0,0,1,0-9l85.17-20.11,85.18-20.12a4.83,4.83,0,0,1,2.14,0l170.35,40.23a4.64,4.64,0,0,1,0,9l-17.65,4.17v24.72A101.66,101.66,0,0,0,466.6,163.81Z"/>
      <path class="cls-1" d="M416,210.21l-.6.18-.12,0c-.4.12-.8.21-1.2.32-.79.21-1.57.43-2.36.63L409,212l-1,.23-1.86.36c-.64.13-1.28.26-1.93.37l-.67.11c-1,.16-1.95.32-2.92.46-1.31.18-2.63.34-4,.48-1,.1-2,.19-3.06.26-.23,0-.46.05-.7.06q-3.84.27-7.71.27a80.54,80.54,0,0,0-80.54,80.53,4.65,4.65,0,1,1-9.29,0,80.53,80.53,0,0,0-80.53-80.53,112.37,112.37,0,0,1-11.47-.59l-.88-.11c-1-.11-1.93-.21-2.89-.35-.75-.1-1.5-.23-2.25-.35l-1.49-.23c-1-.17-2-.37-3-.57-.25,0-.51-.09-.76-.15-1.06-.22-2.12-.46-3.17-.72l-.53-.12c-1-.26-2.09-.54-3.13-.83l-.52-.14-.1,0h0l-.24-.07a111.16,111.16,0,0,1-13.74-5,110,110,0,0,1-36.37-25.87V314.2c0,.31,0,.62,0,.92q0,3.15.14,6a.81.81,0,0,1,0,.16,165.91,165.91,0,0,0,15.48,63.09q3,6.4,6.53,12.54a166.65,166.65,0,0,0,58.93,59.65l1.76,1c.6.35,1.21.68,1.81,1a165.53,165.53,0,0,0,32.53,13.93l1.07.33c1.12.33,2.26.66,3.48,1l1,.28a165.45,165.45,0,0,0,22,4.3c5,.64,10.19,1,15.35,1.2,1.15,0,2.31.08,3.46.09h.27q1.89,0,3.78,0h.19c1.08,0,2.17,0,3.25-.08,5.26-.16,10.49-.56,15.62-1.21l1-.14a165.2,165.2,0,0,0,22-4.44l.69-.19c1-.28,1.95-.55,2.88-.83l1-.29a165.12,165.12,0,0,0,31.62-13.42c.92-.51,1.84-1,2.75-1.54,1.93-1.11,3.83-2.27,5.7-3.46a166.45,166.45,0,0,0,55-57.23q3.71-6.39,6.81-13.12a.31.31,0,0,0,.05-.1c.09-.19.18-.38.26-.57a166.31,166.31,0,0,0,13.72-48.09q.87-6.84,1.18-13.75c.05-1.17.08-2.38.11-3.61,0-.84,0-1.68,0-2.53v-.08c0-.33,0-.67,0-1V179.48A109.59,109.59,0,0,1,416,210.21ZM335.26,379.84a4.65,4.65,0,0,1-2.17,3.62,60.14,60.14,0,0,0-28.45,51.28,4.65,4.65,0,1,1-9.29,0,60.1,60.1,0,0,0-28.44-51.27,4.64,4.64,0,0,1-.52-7.51,81,81,0,0,0,21.53-28,13.36,13.36,0,0,1,12-7.78h.22a13.38,13.38,0,0,1,12,7.78,80.48,80.48,0,0,0,21.51,28A4.65,4.65,0,0,1,335.26,379.84Zm115-65.74a65.08,65.08,0,0,1-129.07,11.82,5.79,5.79,0,0,1-.83.06,6.16,6.16,0,0,1-3.18-.88,34,34,0,0,0-34.41-.28,6.16,6.16,0,0,1-3.88.77,65.11,65.11,0,1,1,1-13.22,46.38,46.38,0,0,1,40.25.25,65.07,65.07,0,0,1,130.13,1.48Z"/>
    </g>
  </g>
</svg>
